<svg width="38" height="38" viewBox="0 0 38 38" fill="none" xmlns="http://www.w3.org/2000/svg">
<path d="M27.5827 24.3333H25.8711L25.2644 23.7483C27.8644 20.715 29.2077 16.5767 28.4711 12.1783C27.4527 6.15501 22.4261 1.34501 16.3594 0.608346C7.1944 -0.518321 -0.518931 7.19501 0.607736 16.36C1.3444 22.4267 6.1544 27.4534 12.1777 28.4717C16.5761 29.2083 20.7144 27.865 23.7477 25.265L24.3327 25.8717V27.5833L33.5411 36.7917C34.4294 37.68 35.8811 37.68 36.7694 36.7917C37.6577 35.9034 37.6577 34.4517 36.7694 33.5634L27.5827 24.3333ZM14.5827 24.3333C9.18774 24.3333 4.83274 19.9783 4.83274 14.5833C4.83274 9.18835 9.18774 4.83335 14.5827 4.83335C19.9777 4.83335 24.3327 9.18835 24.3327 14.5833C24.3327 19.9783 19.9777 24.3333 14.5827 24.3333Z" fill="#D9D9D9"/>
</svg>
